# xmcd
#
# Track frame offsets:
#	150
#	24184
#	41997
#	59619
#	74893
#	90234
#	109822
#	126097
#	140471
#	158542
#	175858
#	189853
#	209170
#	232822
#	247956
#	266407
#	285375
#	301273
#	320103
#	333908
#
# Disc length: 4632 seconds
#
# Revision: 0
# Processed by: cddbd v1.5.2PL0 Copyright (c) Steve Scherf et al.
# Submitted via: audiograbber 1.83.01
#
DISCID=1b121614
DTITLE=Various Artist - 2001-Χρυσές Επιτυχίες 2001
DYEAR=2001
DGENRE=
TTITLE0=Βανδή Δέσποινα - Υποφέρω 
TTITLE1=Διονυσίου Στέλιος-’γγελος  - Η Δική Μου Η Τρέλα 
TTITLE2=Πλούταρχος Γιάννης  - Το Καλύτερο Παιδί 
TTITLE3=Δημητρίου ’ντζελα  - Μαύρη Λίστα (Black List) 
TTITLE4=Ρόκκος Στέλιος  - Σιγα Σιγα 
TTITLE5=Πάριος Γιάννης  - Δεν Ειμαι Εγώ 
TTITLE6=Καρράς Βασίλης  - Να Την Ξεχάσεις 
TTITLE7=Βαλάντης  - Είναι Η Καρδιά Σου ’πιστη 
TTITLE8=Ρουβάς Σάκης  - Σε Θέλω Σαν Τρελός (remix) 
TTITLE9=Ευριδίκη  - Όλα Δικά Σου 
TTITLE10=One  - Πίστεψε Με 
TTITLE11=Τσαλίκης Γιώργος  - Αρρωσταίνω 
TTITLE12=Κόκοτας Δημήτρης  - Έχω Φύγει 
TTITLE13=Ζήνα Πέγκυ  - Τι Θ' Ακούσω Ακόμα 
TTITLE14=Ρακιντζης Μιχάλης  - Αγάπη Του Καλοκαιριού 
TTITLE15=Βαρθακούρης Χάρης  - Αδέσποτες Οι Νύχτες 
TTITLE16=Λεμπέσης Γιώργος  - Όλα Χάρισμα Σου 
TTITLE17=Πάμελα  - Γιατί Σ' Αγαπώ 
TTITLE18=Γελέ Μαρίνα  - Ότι Και Να Κάνεις 
TTITLE19=Μπιθικώτσης Γρηγόρης  - Οι Χάρτες
EXTD=
EXTT0=
EXTT1=
EXTT2=
EXTT3=
EXTT4=
EXTT5=
EXTT6=
EXTT7=
EXTT8=
EXTT9=
EXTT10=
EXTT11=
EXTT12=
EXTT13=
EXTT14=
EXTT15=
EXTT16=
EXTT17=
EXTT18=
EXTT19=
PLAYORDER=
